<?xml version="1.0" encoding="UTF-8" standalone="no"?>
<!-- Generator: Adobe Illustrator 16.0.0, SVG Export Plug-In . SVG Version: 6.00 Build 0)  -->

<svg
   xmlns:dc="http://purl.org/dc/elements/1.1/"
   xmlns:cc="http://creativecommons.org/ns#"
   xmlns:rdf="http://www.w3.org/1999/02/22-rdf-syntax-ns#"
   xmlns:svg="http://www.w3.org/2000/svg"
   xmlns="http://www.w3.org/2000/svg"
   xmlns:sodipodi="http://sodipodi.sourceforge.net/DTD/sodipodi-0.dtd"
   xmlns:inkscape="http://www.inkscape.org/namespaces/inkscape"
   version="1.1"
   id="Capa_1"
   x="0px"
   y="0px"
   width="16"
   height="16"
   viewBox="0 0 16.008107 16.008107"
   xml:space="preserve"
   sodipodi:docname="eye.svg"
   inkscape:version="0.92.2 (5c3e80d, 2017-08-06)"><metadata
     id="metadata3834"><rdf:RDF><cc:Work
         rdf:about=""><dc:format>image/svg+xml</dc:format><dc:type
           rdf:resource="http://purl.org/dc/dcmitype/StillImage" /><dc:title></dc:title></cc:Work></rdf:RDF></metadata><defs
     id="defs3832" /><sodipodi:namedview
     pagecolor="#ffffff"
     bordercolor="#666666"
     borderopacity="1"
     objecttolerance="10"
     gridtolerance="10"
     guidetolerance="10"
     inkscape:pageopacity="0"
     inkscape:pageshadow="2"
     inkscape:window-width="1137"
     inkscape:window-height="972"
     id="namedview3830"
     showgrid="false"
     inkscape:zoom="22.613333"
     inkscape:cx="18.75"
     inkscape:cy="-0.70754717"
     inkscape:window-x="662"
     inkscape:window-y="5"
     inkscape:window-maximized="0"
     inkscape:current-layer="Capa_1" /><g
     transform="matrix(0.67041939,0,0,0.61848336,-4.6234558,-2.9258266)"
     id="g3797"><path
       transform="matrix(0.6,0,0,0.8,5.6,3.1)"
       d="M 40.4,16.9 C 40.1,16.6 32.1,8.6 22.1,8.6 c -10,0 -18,7.9 -18.4,8.3 -0.6,0.6 -0.6,1.5 0,2.1 0.3,0.3 8.3,8.3 18.3,8.3 10,0 18,-7.9 18.3,-8.3 0.7,-0.6 0.7,-1.6 0.1,-2.1 z m -18.3,7.3 c -6.7,0 -12.6,-4.3 -15,-6.3 2.4,-2 8.3,-6.3 15,-6.3 6.7,0 12.6,4.3 15,6.3 -2.4,2.1 -8.3,6.3 -15,6.3 z m 0,-12 c 3.2,0 5.8,2.6 5.8,5.8 0,3.2 -2.6,5.8 -5.8,5.8 -3.2,0 -5.7,-2.6 -5.7,-5.8 -0.1,-3.3 2.5,-5.8 5.7,-5.8 z"
       id="path3795"
       inkscape:connector-curvature="0" /></g><g
     id="g3799"
     transform="translate(0,-21.510894)" /><g
     id="g3801"
     transform="translate(0,-21.510894)" /><g
     id="g3803"
     transform="translate(0,-21.510894)" /><g
     id="g3805"
     transform="translate(0,-21.510894)" /><g
     id="g3807"
     transform="translate(0,-21.510894)" /><g
     id="g3809"
     transform="translate(0,-21.510894)" /><g
     id="g3811"
     transform="translate(0,-21.510894)" /><g
     id="g3813"
     transform="translate(0,-21.510894)" /><g
     id="g3815"
     transform="translate(0,-21.510894)" /><g
     id="g3817"
     transform="translate(0,-21.510894)" /><g
     id="g3819"
     transform="translate(0,-21.510894)" /><g
     id="g3821"
     transform="translate(0,-21.510894)" /><g
     id="g3823"
     transform="translate(0,-21.510894)" /><g
     id="g3825"
     transform="translate(0,-21.510894)" /><g
     id="g3827"
     transform="translate(0,-21.510894)" /></svg>