<?xml version="1.0" encoding="UTF-8" standalone="no"?>
<svg
   xmlns:dc="http://purl.org/dc/elements/1.1/"
   xmlns:cc="http://creativecommons.org/ns#"
   xmlns:rdf="http://www.w3.org/1999/02/22-rdf-syntax-ns#"
   xmlns:svg="http://www.w3.org/2000/svg"
   xmlns="http://www.w3.org/2000/svg"
   xmlns:sodipodi="http://sodipodi.sourceforge.net/DTD/sodipodi-0.dtd"
   xmlns:inkscape="http://www.inkscape.org/namespaces/inkscape"
   version="1.1"
   viewBox="0 0 16 16"
   enable-background="new 0 0 512 512"
   id="svg3946"
   sodipodi:docname="syringe.svg"
   width="16"
   height="16"
   inkscape:version="0.92.2 (5c3e80d, 2017-08-06)">
  <metadata
     id="metadata3952">
    <rdf:RDF>
      <cc:Work
         rdf:about="">
        <dc:format>image/svg+xml</dc:format>
        <dc:type
           rdf:resource="http://purl.org/dc/dcmitype/StillImage" />
        <dc:title />
      </cc:Work>
    </rdf:RDF>
  </metadata>
  <defs
     id="defs3950" />
  <sodipodi:namedview
     pagecolor="#ffffff"
     bordercolor="#666666"
     borderopacity="1"
     objecttolerance="10"
     gridtolerance="10"
     guidetolerance="10"
     inkscape:pageopacity="0"
     inkscape:pageshadow="2"
     inkscape:window-width="881"
     inkscape:window-height="873"
     id="namedview3948"
     showgrid="false"
     inkscape:zoom="14.75"
     inkscape:cx="9.1463748"
     inkscape:cy="8.8572339"
     inkscape:window-x="1001"
     inkscape:window-y="115"
     inkscape:window-maximized="0"
     inkscape:current-layer="svg3946" />
  <g
     id="g3944"
     transform="matrix(0.03061224,0,0,0.03061283,0.01919718,0.1624476)"
     style="fill:#424242;fill-opacity:1">
    <g
       id="g3942"
       style="fill:#424242;fill-opacity:1">
      <path
         d="M 495,93.5 418.8,17 c -8,-8 -20.9,-8 -28.9,0 -8,8 -8,20.9 0,28.9 l 23.7,23.8 -19.9,19.9 28.8,28.9 19.9,-19.9 23.7,23.7 c 12.5,11 24.9,4 28.9,0 8,-7.9 8,-20.9 0,-28.8 z"
         id="path3936"
         inkscape:connector-curvature="0"
         style="fill:#424242;fill-opacity:1" />
      <path
         d="m 320.8,74.2 c -8,-8 -20.9,-8 -28.9,0 -8,8 -8,20.9 0,28.9 l 11,11 -102.2,102.2 94.9,95.1 102.2,-102.2 11,11 c 3.7,4.7 18,10.9 28.9,0 8,-8 8,-20.9 0,-28.9 z"
         id="path3938"
         inkscape:connector-curvature="0"
         style="fill:#424242;fill-opacity:1" />
      <path
         d="M 103.6,313.4 C 82.4,334.6 78.4,366.5 91.4,391.8 L 17,466.1 c -8,8 -8,20.9 0,28.9 4,4 15.8,11.2 28.9,0 l 74.3,-74.3 c 9.4,4.9 45,19.1 78.3,-12.1 l 68.3,-68.3 -94.9,-95.1 z"
         id="path3940"
         inkscape:connector-curvature="0"
         style="fill:#424242;fill-opacity:1" />
    </g>
  </g>
</svg>
